<?xml version="1.0" encoding="utf-8" standalone="no"?>
<!DOCTYPE svg PUBLIC "-//W3C//DTD SVG 1.1//EN"
  "http://www.w3.org/Graphics/SVG/1.1/DTD/svg11.dtd">
<svg xmlns:xlink="http://www.w3.org/1999/xlink" width="712.08pt" height="461.52pt" viewBox="0 0 712.08 461.52" xmlns="http://www.w3.org/2000/svg" version="1.1">
 <metadata>
  <rdf:RDF xmlns:dc="http://purl.org/dc/elements/1.1/" xmlns:cc="http://creativecommons.org/ns#" xmlns:rdf="http://www.w3.org/1999/02/22-rdf-syntax-ns#">
   <cc:Work>
    <dc:type rdf:resource="http://purl.org/dc/dcmitype/StillImage"/>
    <dc:date>2025-05-04T18:09:01.578837</dc:date>
    <dc:format>image/svg+xml</dc:format>
    <dc:creator>
     <cc:Agent>
      <dc:title>Matplotlib v3.9.2, https://matplotlib.org/</dc:title>
     </cc:Agent>
    </dc:creator>
   </cc:Work>
  </rdf:RDF>
 </metadata>
 <defs>
  <style type="text/css">*{stroke-linejoin: round; stroke-linecap: butt}</style>
 </defs>
 <g id="figure_1">
  <g id="patch_1">
   <path d="M 0 461.52 
L 712.08 461.52 
L 712.08 0 
L 0 0 
z
" style="fill: #ffffff"/>
  </g>
  <g id="axes_1">
   <g id="patch_2">
    <path d="M 89.01 410.7528 
L 640.872 410.7528 
L 640.872 55.3824 
L 89.01 55.3824 
z
" style="fill: #ffffff"/>
   </g>
   <g id="PathCollection_1">
    <defs>
     <path id="md446280335" d="M -3.535534 0 
L 3.535534 0 
M 0 3.535534 
L 0 -3.535534 
" style="stroke: #0000ff; stroke-width: 1.5"/>
    </defs>
    <g clip-path="url(#pe6383b9b7a)">
     <use xlink:href="#md446280335" x="615.787364" y="71.5356" style="fill: #0000ff; stroke: #0000ff; stroke-width: 1.5"/>
     <use xlink:href="#md446280335" x="281.325545" y="108.606661" style="fill: #0000ff; stroke: #0000ff; stroke-width: 1.5"/>
     <use xlink:href="#md446280335" x="114.094636" y="135.089603" style="fill: #0000ff; stroke: #0000ff; stroke-width: 1.5"/>
    </g>
   </g>
   <g id="PathCollection_2">
    <defs>
     <path id="ma44c2b8120" d="M -3.535534 3.535534 
L 3.535534 -3.535534 
M -3.535534 -3.535534 
L 3.535534 3.535534 
" style="stroke: #0000ff; stroke-width: 1.5"/>
    </defs>
    <g clip-path="url(#pe6383b9b7a)">
     <use xlink:href="#ma44c2b8120" x="615.787364" y="71.5356" style="fill: #0000ff; stroke: #0000ff; stroke-width: 1.5"/>
     <use xlink:href="#ma44c2b8120" x="281.325545" y="108.606661" style="fill: #0000ff; stroke: #0000ff; stroke-width: 1.5"/>
     <use xlink:href="#ma44c2b8120" x="114.094636" y="135.089603" style="fill: #0000ff; stroke: #0000ff; stroke-width: 1.5"/>
    </g>
   </g>
   <g id="PathCollection_3">
    <defs>
     <path id="m94605443f4" d="M -3.535534 0 
L 3.535534 0 
M 0 3.535534 
L 0 -3.535534 
" style="stroke: #008000; stroke-width: 1.5"/>
    </defs>
    <g clip-path="url(#pe6383b9b7a)">
     <use xlink:href="#m94605443f4" x="615.787364" y="191.411996" style="fill: #008000; stroke: #008000; stroke-width: 1.5"/>
     <use xlink:href="#m94605443f4" x="281.325545" y="241.567647" style="fill: #008000; stroke: #008000; stroke-width: 1.5"/>
     <use xlink:href="#m94605443f4" x="114.094636" y="277.237028" style="fill: #008000; stroke: #008000; stroke-width: 1.5"/>
    </g>
   </g>
   <g id="PathCollection_4">
    <defs>
     <path id="m4fd43e333b" d="M -3.535534 3.535534 
L 3.535534 -3.535534 
M -3.535534 -3.535534 
L 3.535534 3.535534 
" style="stroke: #008000; stroke-width: 1.5"/>
    </defs>
    <g clip-path="url(#pe6383b9b7a)">
     <use xlink:href="#m4fd43e333b" x="615.787364" y="191.412009" style="fill: #008000; stroke: #008000; stroke-width: 1.5"/>
     <use xlink:href="#m4fd43e333b" x="281.325545" y="241.567795" style="fill: #008000; stroke: #008000; stroke-width: 1.5"/>
     <use xlink:href="#m4fd43e333b" x="114.094636" y="277.234774" style="fill: #008000; stroke: #008000; stroke-width: 1.5"/>
    </g>
   </g>
   <g id="PathCollection_5">
    <defs>
     <path id="mebd840533d" d="M -3.535534 0 
L 3.535534 0 
M 0 3.535534 
L 0 -3.535534 
" style="stroke: #ff0000; stroke-width: 1.5"/>
    </defs>
    <g clip-path="url(#pe6383b9b7a)">
     <use xlink:href="#mebd840533d" x="615.787364" y="349.364377" style="fill: #ff0000; stroke: #ff0000; stroke-width: 1.5"/>
     <use xlink:href="#mebd840533d" x="281.325545" y="356.582902" style="fill: #ff0000; stroke: #ff0000; stroke-width: 1.5"/>
     <use xlink:href="#mebd840533d" x="114.094636" y="363.926523" style="fill: #ff0000; stroke: #ff0000; stroke-width: 1.5"/>
    </g>
   </g>
   <g id="PathCollection_6">
    <defs>
     <path id="m4a94e71f6f" d="M -3.535534 3.535534 
L 3.535534 -3.535534 
M -3.535534 -3.535534 
L 3.535534 3.535534 
" style="stroke: #ff0000; stroke-width: 1.5"/>
    </defs>
    <g clip-path="url(#pe6383b9b7a)">
     <use xlink:href="#m4a94e71f6f" x="615.787364" y="349.339797" style="fill: #ff0000; stroke: #ff0000; stroke-width: 1.5"/>
     <use xlink:href="#m4a94e71f6f" x="281.325545" y="382.955549" style="fill: #ff0000; stroke: #ff0000; stroke-width: 1.5"/>
     <use xlink:href="#m4a94e71f6f" x="114.094636" y="394.5996" style="fill: #ff0000; stroke: #ff0000; stroke-width: 1.5"/>
    </g>
   </g>
   <g id="PathCollection_7">
    <defs>
     <path id="mc0095e8b9c" d="M -3.535534 0 
L 3.535534 0 
M 0 3.535534 
L 0 -3.535534 
" style="stroke: #00bfbf; stroke-width: 1.5"/>
    </defs>
    <g clip-path="url(#pe6383b9b7a)">
     <use xlink:href="#mc0095e8b9c" x="615.787364" y="301.12325" style="fill: #00bfbf; stroke: #00bfbf; stroke-width: 1.5"/>
     <use xlink:href="#mc0095e8b9c" x="281.325545" y="345.998588" style="fill: #00bfbf; stroke: #00bfbf; stroke-width: 1.5"/>
     <use xlink:href="#mc0095e8b9c" x="114.094636" y="336.276611" style="fill: #00bfbf; stroke: #00bfbf; stroke-width: 1.5"/>
    </g>
   </g>
   <g id="PathCollection_8">
    <defs>
     <path id="m16f2e11dd5" d="M -3.535534 3.535534 
L 3.535534 -3.535534 
M -3.535534 -3.535534 
L 3.535534 3.535534 
" style="stroke: #00bfbf; stroke-width: 1.5"/>
    </defs>
    <g clip-path="url(#pe6383b9b7a)">
     <use xlink:href="#m16f2e11dd5" x="615.787364" y="390.303198" style="fill: #00bfbf; stroke: #00bfbf; stroke-width: 1.5"/>
     <use xlink:href="#m16f2e11dd5" x="281.325545" y="380.370335" style="fill: #00bfbf; stroke: #00bfbf; stroke-width: 1.5"/>
     <use xlink:href="#m16f2e11dd5" x="114.094636" y="393.409459" style="fill: #00bfbf; stroke: #00bfbf; stroke-width: 1.5"/>
    </g>
   </g>
   <g id="matplotlib.axis_1">
    <g id="xtick_1">
     <g id="line2d_1">
      <defs>
       <path id="m4c48677460" d="M 0 0 
L 0 3.5 
" style="stroke: #000000; stroke-width: 0.8"/>
      </defs>
      <g>
       <use xlink:href="#m4c48677460" x="130.227492" y="410.7528" style="stroke: #000000; stroke-width: 0.8"/>
      </g>
     </g>
     <g id="text_1">
      <!-- 0.0025 -->
      <g transform="translate(112.73218 425.351238) scale(0.1 -0.1)">
       <defs>
        <path id="DejaVuSans-30" d="M 2034 4250 
Q 1547 4250 1301 3770 
Q 1056 3291 1056 2328 
Q 1056 1369 1301 889 
Q 1547 409 2034 409 
Q 2525 409 2770 889 
Q 3016 1369 3016 2328 
Q 3016 3291 2770 3770 
Q 2525 4250 2034 4250 
z
M 2034 4750 
Q 2819 4750 3233 4129 
Q 3647 3509 3647 2328 
Q 3647 1150 3233 529 
Q 2819 -91 2034 -91 
Q 1250 -91 836 529 
Q 422 1150 422 2328 
Q 422 3509 836 4129 
Q 1250 4750 2034 4750 
z
" transform="scale(0.015625)"/>
        <path id="DejaVuSans-2e" d="M 684 794 
L 1344 794 
L 1344 0 
L 684 0 
L 684 794 
z
" transform="scale(0.015625)"/>
        <path id="DejaVuSans-32" d="M 1228 531 
L 3431 531 
L 3431 0 
L 469 0 
L 469 531 
Q 828 903 1448 1529 
Q 2069 2156 2228 2338 
Q 2531 2678 2651 2914 
Q 2772 3150 2772 3378 
Q 2772 3750 2511 3984 
Q 2250 4219 1831 4219 
Q 1534 4219 1204 4116 
Q 875 4013 500 3803 
L 500 4441 
Q 881 4594 1212 4672 
Q 1544 4750 1819 4750 
Q 2544 4750 2975 4387 
Q 3406 4025 3406 3419 
Q 3406 3131 3298 2873 
Q 3191 2616 2906 2266 
Q 2828 2175 2409 1742 
Q 1991 1309 1228 531 
z
" transform="scale(0.015625)"/>
        <path id="DejaVuSans-35" d="M 691 4666 
L 3169 4666 
L 3169 4134 
L 1269 4134 
L 1269 2991 
Q 1406 3038 1543 3061 
Q 1681 3084 1819 3084 
Q 2600 3084 3056 2656 
Q 3513 2228 3513 1497 
Q 3513 744 3044 326 
Q 2575 -91 1722 -91 
Q 1428 -91 1123 -41 
Q 819 9 494 109 
L 494 744 
Q 775 591 1075 516 
Q 1375 441 1709 441 
Q 2250 441 2565 725 
Q 2881 1009 2881 1497 
Q 2881 1984 2565 2268 
Q 2250 2553 1709 2553 
Q 1456 2553 1204 2497 
Q 953 2441 691 2322 
L 691 4666 
z
" transform="scale(0.015625)"/>
       </defs>
       <use xlink:href="#DejaVuSans-30"/>
       <use xlink:href="#DejaVuSans-2e" x="63.623047"/>
       <use xlink:href="#DejaVuSans-30" x="95.410156"/>
       <use xlink:href="#DejaVuSans-30" x="159.033203"/>
       <use xlink:href="#DejaVuSans-32" x="222.65625"/>
       <use xlink:href="#DejaVuSans-35" x="286.279297"/>
      </g>
     </g>
    </g>
    <g id="xtick_2">
     <g id="line2d_2">
      <g>
       <use xlink:href="#m4c48677460" x="233.792609" y="410.7528" style="stroke: #000000; stroke-width: 0.8"/>
      </g>
     </g>
     <g id="text_2">
      <!-- 0.0030 -->
      <g transform="translate(216.297297 425.351238) scale(0.1 -0.1)">
       <defs>
        <path id="DejaVuSans-33" d="M 2597 2516 
Q 3050 2419 3304 2112 
Q 3559 1806 3559 1356 
Q 3559 666 3084 287 
Q 2609 -91 1734 -91 
Q 1441 -91 1130 -33 
Q 819 25 488 141 
L 488 750 
Q 750 597 1062 519 
Q 1375 441 1716 441 
Q 2309 441 2620 675 
Q 2931 909 2931 1356 
Q 2931 1769 2642 2001 
Q 2353 2234 1838 2234 
L 1294 2234 
L 1294 2753 
L 1863 2753 
Q 2328 2753 2575 2939 
Q 2822 3125 2822 3475 
Q 2822 3834 2567 4026 
Q 2313 4219 1838 4219 
Q 1578 4219 1281 4162 
Q 984 4106 628 3988 
L 628 4550 
Q 988 4650 1302 4700 
Q 1616 4750 1894 4750 
Q 2613 4750 3031 4423 
Q 3450 4097 3450 3541 
Q 3450 3153 3228 2886 
Q 3006 2619 2597 2516 
z
" transform="scale(0.015625)"/>
       </defs>
       <use xlink:href="#DejaVuSans-30"/>
       <use xlink:href="#DejaVuSans-2e" x="63.623047"/>
       <use xlink:href="#DejaVuSans-30" x="95.410156"/>
       <use xlink:href="#DejaVuSans-30" x="159.033203"/>
       <use xlink:href="#DejaVuSans-33" x="222.65625"/>
       <use xlink:href="#DejaVuSans-30" x="286.279297"/>
      </g>
     </g>
    </g>
    <g id="xtick_3">
     <g id="line2d_3">
      <g>
       <use xlink:href="#m4c48677460" x="337.357726" y="410.7528" style="stroke: #000000; stroke-width: 0.8"/>
      </g>
     </g>
     <g id="text_3">
      <!-- 0.0035 -->
      <g transform="translate(319.862413 425.351238) scale(0.1 -0.1)">
       <use xlink:href="#DejaVuSans-30"/>
       <use xlink:href="#DejaVuSans-2e" x="63.623047"/>
       <use xlink:href="#DejaVuSans-30" x="95.410156"/>
       <use xlink:href="#DejaVuSans-30" x="159.033203"/>
       <use xlink:href="#DejaVuSans-33" x="222.65625"/>
       <use xlink:href="#DejaVuSans-35" x="286.279297"/>
      </g>
     </g>
    </g>
    <g id="xtick_4">
     <g id="line2d_4">
      <g>
       <use xlink:href="#m4c48677460" x="440.922842" y="410.7528" style="stroke: #000000; stroke-width: 0.8"/>
      </g>
     </g>
     <g id="text_4">
      <!-- 0.0040 -->
      <g transform="translate(423.42753 425.351238) scale(0.1 -0.1)">
       <defs>
        <path id="DejaVuSans-34" d="M 2419 4116 
L 825 1625 
L 2419 1625 
L 2419 4116 
z
M 2253 4666 
L 3047 4666 
L 3047 1625 
L 3713 1625 
L 3713 1100 
L 3047 1100 
L 3047 0 
L 2419 0 
L 2419 1100 
L 313 1100 
L 313 1709 
L 2253 4666 
z
" transform="scale(0.015625)"/>
       </defs>
       <use xlink:href="#DejaVuSans-30"/>
       <use xlink:href="#DejaVuSans-2e" x="63.623047"/>
       <use xlink:href="#DejaVuSans-30" x="95.410156"/>
       <use xlink:href="#DejaVuSans-30" x="159.033203"/>
       <use xlink:href="#DejaVuSans-34" x="222.65625"/>
       <use xlink:href="#DejaVuSans-30" x="286.279297"/>
      </g>
     </g>
    </g>
    <g id="xtick_5">
     <g id="line2d_5">
      <g>
       <use xlink:href="#m4c48677460" x="544.487959" y="410.7528" style="stroke: #000000; stroke-width: 0.8"/>
      </g>
     </g>
     <g id="text_5">
      <!-- 0.0045 -->
      <g transform="translate(526.992647 425.351238) scale(0.1 -0.1)">
       <use xlink:href="#DejaVuSans-30"/>
       <use xlink:href="#DejaVuSans-2e" x="63.623047"/>
       <use xlink:href="#DejaVuSans-30" x="95.410156"/>
       <use xlink:href="#DejaVuSans-30" x="159.033203"/>
       <use xlink:href="#DejaVuSans-34" x="222.65625"/>
       <use xlink:href="#DejaVuSans-35" x="286.279297"/>
      </g>
     </g>
    </g>
    <g id="text_6">
     <!-- Mesh Resolution ($h$) -->
     <g transform="translate(295.221 442.068737) scale(0.14 -0.14)">
      <defs>
       <path id="DejaVuSans-4d" d="M 628 4666 
L 1569 4666 
L 2759 1491 
L 3956 4666 
L 4897 4666 
L 4897 0 
L 4281 0 
L 4281 4097 
L 3078 897 
L 2444 897 
L 1241 4097 
L 1241 0 
L 628 0 
L 628 4666 
z
" transform="scale(0.015625)"/>
       <path id="DejaVuSans-65" d="M 3597 1894 
L 3597 1613 
L 953 1613 
Q 991 1019 1311 708 
Q 1631 397 2203 397 
Q 2534 397 2845 478 
Q 3156 559 3463 722 
L 3463 178 
Q 3153 47 2828 -22 
Q 2503 -91 2169 -91 
Q 1331 -91 842 396 
Q 353 884 353 1716 
Q 353 2575 817 3079 
Q 1281 3584 2069 3584 
Q 2775 3584 3186 3129 
Q 3597 2675 3597 1894 
z
M 3022 2063 
Q 3016 2534 2758 2815 
Q 2500 3097 2075 3097 
Q 1594 3097 1305 2825 
Q 1016 2553 972 2059 
L 3022 2063 
z
" transform="scale(0.015625)"/>
       <path id="DejaVuSans-73" d="M 2834 3397 
L 2834 2853 
Q 2591 2978 2328 3040 
Q 2066 3103 1784 3103 
Q 1356 3103 1142 2972 
Q 928 2841 928 2578 
Q 928 2378 1081 2264 
Q 1234 2150 1697 2047 
L 1894 2003 
Q 2506 1872 2764 1633 
Q 3022 1394 3022 966 
Q 3022 478 2636 193 
Q 2250 -91 1575 -91 
Q 1294 -91 989 -36 
Q 684 19 347 128 
L 347 722 
Q 666 556 975 473 
Q 1284 391 1588 391 
Q 1994 391 2212 530 
Q 2431 669 2431 922 
Q 2431 1156 2273 1281 
Q 2116 1406 1581 1522 
L 1381 1569 
Q 847 1681 609 1914 
Q 372 2147 372 2553 
Q 372 3047 722 3315 
Q 1072 3584 1716 3584 
Q 2034 3584 2315 3537 
Q 2597 3491 2834 3397 
z
" transform="scale(0.015625)"/>
       <path id="DejaVuSans-68" d="M 3513 2113 
L 3513 0 
L 2938 0 
L 2938 2094 
Q 2938 2591 2744 2837 
Q 2550 3084 2163 3084 
Q 1697 3084 1428 2787 
Q 1159 2491 1159 1978 
L 1159 0 
L 581 0 
L 581 4863 
L 1159 4863 
L 1159 2956 
Q 1366 3272 1645 3428 
Q 1925 3584 2291 3584 
Q 2894 3584 3203 3211 
Q 3513 2838 3513 2113 
z
" transform="scale(0.015625)"/>
       <path id="DejaVuSans-20" transform="scale(0.015625)"/>
       <path id="DejaVuSans-52" d="M 2841 2188 
Q 3044 2119 3236 1894 
Q 3428 1669 3622 1275 
L 4263 0 
L 3584 0 
L 2988 1197 
Q 2756 1666 2539 1819 
Q 2322 1972 1947 1972 
L 1259 1972 
L 1259 0 
L 628 0 
L 628 4666 
L 2053 4666 
Q 2853 4666 3247 4331 
Q 3641 3997 3641 3322 
Q 3641 2881 3436 2590 
Q 3231 2300 2841 2188 
z
M 1259 4147 
L 1259 2491 
L 2053 2491 
Q 2509 2491 2742 2702 
Q 2975 2913 2975 3322 
Q 2975 3731 2742 3939 
Q 2509 4147 2053 4147 
L 1259 4147 
z
" transform="scale(0.015625)"/>
       <path id="DejaVuSans-6f" d="M 1959 3097 
Q 1497 3097 1228 2736 
Q 959 2375 959 1747 
Q 959 1119 1226 758 
Q 1494 397 1959 397 
Q 2419 397 2687 759 
Q 2956 1122 2956 1747 
Q 2956 2369 2687 2733 
Q 2419 3097 1959 3097 
z
M 1959 3584 
Q 2709 3584 3137 3096 
Q 3566 2609 3566 1747 
Q 3566 888 3137 398 
Q 2709 -91 1959 -91 
Q 1206 -91 779 398 
Q 353 888 353 1747 
Q 353 2609 779 3096 
Q 1206 3584 1959 3584 
z
" transform="scale(0.015625)"/>
       <path id="DejaVuSans-6c" d="M 603 4863 
L 1178 4863 
L 1178 0 
L 603 0 
L 603 4863 
z
" transform="scale(0.015625)"/>
       <path id="DejaVuSans-75" d="M 544 1381 
L 544 3500 
L 1119 3500 
L 1119 1403 
Q 1119 906 1312 657 
Q 1506 409 1894 409 
Q 2359 409 2629 706 
Q 2900 1003 2900 1516 
L 2900 3500 
L 3475 3500 
L 3475 0 
L 2900 0 
L 2900 538 
Q 2691 219 2414 64 
Q 2138 -91 1772 -91 
Q 1169 -91 856 284 
Q 544 659 544 1381 
z
M 1991 3584 
L 1991 3584 
z
" transform="scale(0.015625)"/>
       <path id="DejaVuSans-74" d="M 1172 4494 
L 1172 3500 
L 2356 3500 
L 2356 3053 
L 1172 3053 
L 1172 1153 
Q 1172 725 1289 603 
Q 1406 481 1766 481 
L 2356 481 
L 2356 0 
L 1766 0 
Q 1100 0 847 248 
Q 594 497 594 1153 
L 594 3053 
L 172 3053 
L 172 3500 
L 594 3500 
L 594 4494 
L 1172 4494 
z
" transform="scale(0.015625)"/>
       <path id="DejaVuSans-69" d="M 603 3500 
L 1178 3500 
L 1178 0 
L 603 0 
L 603 3500 
z
M 603 4863 
L 1178 4863 
L 1178 4134 
L 603 4134 
L 603 4863 
z
" transform="scale(0.015625)"/>
       <path id="DejaVuSans-6e" d="M 3513 2113 
L 3513 0 
L 2938 0 
L 2938 2094 
Q 2938 2591 2744 2837 
Q 2550 3084 2163 3084 
Q 1697 3084 1428 2787 
Q 1159 2491 1159 1978 
L 1159 0 
L 581 0 
L 581 3500 
L 1159 3500 
L 1159 2956 
Q 1366 3272 1645 3428 
Q 1925 3584 2291 3584 
Q 2894 3584 3203 3211 
Q 3513 2838 3513 2113 
z
" transform="scale(0.015625)"/>
       <path id="DejaVuSans-28" d="M 1984 4856 
Q 1566 4138 1362 3434 
Q 1159 2731 1159 2009 
Q 1159 1288 1364 580 
Q 1569 -128 1984 -844 
L 1484 -844 
Q 1016 -109 783 600 
Q 550 1309 550 2009 
Q 550 2706 781 3412 
Q 1013 4119 1484 4856 
L 1984 4856 
z
" transform="scale(0.015625)"/>
       <path id="DejaVuSans-Oblique-68" d="M 3566 2113 
L 3156 0 
L 2578 0 
L 2988 2091 
Q 3016 2238 3031 2350 
Q 3047 2463 3047 2528 
Q 3047 2791 2881 2937 
Q 2716 3084 2419 3084 
Q 1956 3084 1617 2771 
Q 1278 2459 1178 1941 
L 800 0 
L 225 0 
L 1172 4863 
L 1747 4863 
L 1375 2950 
Q 1594 3244 1934 3414 
Q 2275 3584 2650 3584 
Q 3113 3584 3367 3334 
Q 3622 3084 3622 2631 
Q 3622 2519 3608 2391 
Q 3594 2263 3566 2113 
z
" transform="scale(0.015625)"/>
       <path id="DejaVuSans-29" d="M 513 4856 
L 1013 4856 
Q 1481 4119 1714 3412 
Q 1947 2706 1947 2009 
Q 1947 1309 1714 600 
Q 1481 -109 1013 -844 
L 513 -844 
Q 928 -128 1133 580 
Q 1338 1288 1338 2009 
Q 1338 2731 1133 3434 
Q 928 4138 513 4856 
z
" transform="scale(0.015625)"/>
      </defs>
      <use xlink:href="#DejaVuSans-4d" transform="translate(0 0.015625)"/>
      <use xlink:href="#DejaVuSans-65" transform="translate(86.279297 0.015625)"/>
      <use xlink:href="#DejaVuSans-73" transform="translate(147.802734 0.015625)"/>
      <use xlink:href="#DejaVuSans-68" transform="translate(199.902344 0.015625)"/>
      <use xlink:href="#DejaVuSans-20" transform="translate(263.28125 0.015625)"/>
      <use xlink:href="#DejaVuSans-52" transform="translate(295.068359 0.015625)"/>
      <use xlink:href="#DejaVuSans-65" transform="translate(364.550781 0.015625)"/>
      <use xlink:href="#DejaVuSans-73" transform="translate(426.074219 0.015625)"/>
      <use xlink:href="#DejaVuSans-6f" transform="translate(478.173828 0.015625)"/>
      <use xlink:href="#DejaVuSans-6c" transform="translate(539.355469 0.015625)"/>
      <use xlink:href="#DejaVuSans-75" transform="translate(567.138672 0.015625)"/>
      <use xlink:href="#DejaVuSans-74" transform="translate(630.517578 0.015625)"/>
      <use xlink:href="#DejaVuSans-69" transform="translate(669.726562 0.015625)"/>
      <use xlink:href="#DejaVuSans-6f" transform="translate(697.509766 0.015625)"/>
      <use xlink:href="#DejaVuSans-6e" transform="translate(758.691406 0.015625)"/>
      <use xlink:href="#DejaVuSans-20" transform="translate(822.070312 0.015625)"/>
      <use xlink:href="#DejaVuSans-28" transform="translate(853.857422 0.015625)"/>
      <use xlink:href="#DejaVuSans-Oblique-68" transform="translate(892.871094 0.015625)"/>
      <use xlink:href="#DejaVuSans-29" transform="translate(956.25 0.015625)"/>
     </g>
    </g>
   </g>
   <g id="matplotlib.axis_2">
    <g id="ytick_1">
     <g id="line2d_6">
      <defs>
       <path id="md28a32e55c" d="M 0 0 
L -3.5 0 
" style="stroke: #000000; stroke-width: 0.8"/>
      </defs>
      <g>
       <use xlink:href="#md28a32e55c" x="89.01" y="356.624192" style="stroke: #000000; stroke-width: 0.8"/>
      </g>
     </g>
     <g id="text_7">
      <!-- $\mathdefault{10^{-13}}$ -->
      <g transform="translate(54.11 360.423411) scale(0.1 -0.1)">
       <defs>
        <path id="DejaVuSans-31" d="M 794 531 
L 1825 531 
L 1825 4091 
L 703 3866 
L 703 4441 
L 1819 4666 
L 2450 4666 
L 2450 531 
L 3481 531 
L 3481 0 
L 794 0 
L 794 531 
z
" transform="scale(0.015625)"/>
        <path id="DejaVuSans-2212" d="M 678 2272 
L 4684 2272 
L 4684 1741 
L 678 1741 
L 678 2272 
z
" transform="scale(0.015625)"/>
       </defs>
       <use xlink:href="#DejaVuSans-31" transform="translate(0 0.765625)"/>
       <use xlink:href="#DejaVuSans-30" transform="translate(63.623047 0.765625)"/>
       <use xlink:href="#DejaVuSans-2212" transform="translate(128.203125 39.046875) scale(0.7)"/>
       <use xlink:href="#DejaVuSans-31" transform="translate(186.855469 39.046875) scale(0.7)"/>
       <use xlink:href="#DejaVuSans-33" transform="translate(231.391602 39.046875) scale(0.7)"/>
      </g>
     </g>
    </g>
    <g id="ytick_2">
     <g id="line2d_7">
      <g>
       <use xlink:href="#md28a32e55c" x="89.01" y="284.860539" style="stroke: #000000; stroke-width: 0.8"/>
      </g>
     </g>
     <g id="text_8">
      <!-- $\mathdefault{10^{-11}}$ -->
      <g transform="translate(54.11 288.659758) scale(0.1 -0.1)">
       <use xlink:href="#DejaVuSans-31" transform="translate(0 0.684375)"/>
       <use xlink:href="#DejaVuSans-30" transform="translate(63.623047 0.684375)"/>
       <use xlink:href="#DejaVuSans-2212" transform="translate(128.203125 38.965625) scale(0.7)"/>
       <use xlink:href="#DejaVuSans-31" transform="translate(186.855469 38.965625) scale(0.7)"/>
       <use xlink:href="#DejaVuSans-31" transform="translate(231.391602 38.965625) scale(0.7)"/>
      </g>
     </g>
    </g>
    <g id="ytick_3">
     <g id="line2d_8">
      <g>
       <use xlink:href="#md28a32e55c" x="89.01" y="213.096887" style="stroke: #000000; stroke-width: 0.8"/>
      </g>
     </g>
     <g id="text_9">
      <!-- $\mathdefault{10^{-9}}$ -->
      <g transform="translate(58.51 216.896105) scale(0.1 -0.1)">
       <defs>
        <path id="DejaVuSans-39" d="M 703 97 
L 703 672 
Q 941 559 1184 500 
Q 1428 441 1663 441 
Q 2288 441 2617 861 
Q 2947 1281 2994 2138 
Q 2813 1869 2534 1725 
Q 2256 1581 1919 1581 
Q 1219 1581 811 2004 
Q 403 2428 403 3163 
Q 403 3881 828 4315 
Q 1253 4750 1959 4750 
Q 2769 4750 3195 4129 
Q 3622 3509 3622 2328 
Q 3622 1225 3098 567 
Q 2575 -91 1691 -91 
Q 1453 -91 1209 -44 
Q 966 3 703 97 
z
M 1959 2075 
Q 2384 2075 2632 2365 
Q 2881 2656 2881 3163 
Q 2881 3666 2632 3958 
Q 2384 4250 1959 4250 
Q 1534 4250 1286 3958 
Q 1038 3666 1038 3163 
Q 1038 2656 1286 2365 
Q 1534 2075 1959 2075 
z
" transform="scale(0.015625)"/>
       </defs>
       <use xlink:href="#DejaVuSans-31" transform="translate(0 0.765625)"/>
       <use xlink:href="#DejaVuSans-30" transform="translate(63.623047 0.765625)"/>
       <use xlink:href="#DejaVuSans-2212" transform="translate(128.203125 39.046875) scale(0.7)"/>
       <use xlink:href="#DejaVuSans-39" transform="translate(186.855469 39.046875) scale(0.7)"/>
      </g>
     </g>
    </g>
    <g id="ytick_4">
     <g id="line2d_9">
      <g>
       <use xlink:href="#md28a32e55c" x="89.01" y="141.333234" style="stroke: #000000; stroke-width: 0.8"/>
      </g>
     </g>
     <g id="text_10">
      <!-- $\mathdefault{10^{-7}}$ -->
      <g transform="translate(58.51 145.132452) scale(0.1 -0.1)">
       <defs>
        <path id="DejaVuSans-37" d="M 525 4666 
L 3525 4666 
L 3525 4397 
L 1831 0 
L 1172 0 
L 2766 4134 
L 525 4134 
L 525 4666 
z
" transform="scale(0.015625)"/>
       </defs>
       <use xlink:href="#DejaVuSans-31" transform="translate(0 0.684375)"/>
       <use xlink:href="#DejaVuSans-30" transform="translate(63.623047 0.684375)"/>
       <use xlink:href="#DejaVuSans-2212" transform="translate(128.203125 38.965625) scale(0.7)"/>
       <use xlink:href="#DejaVuSans-37" transform="translate(186.855469 38.965625) scale(0.7)"/>
      </g>
     </g>
    </g>
    <g id="ytick_5">
     <g id="line2d_10">
      <g>
       <use xlink:href="#md28a32e55c" x="89.01" y="69.569581" style="stroke: #000000; stroke-width: 0.8"/>
      </g>
     </g>
     <g id="text_11">
      <!-- $\mathdefault{10^{-5}}$ -->
      <g transform="translate(58.51 73.3688) scale(0.1 -0.1)">
       <use xlink:href="#DejaVuSans-31" transform="translate(0 0.684375)"/>
       <use xlink:href="#DejaVuSans-30" transform="translate(63.623047 0.684375)"/>
       <use xlink:href="#DejaVuSans-2212" transform="translate(128.203125 38.965625) scale(0.7)"/>
       <use xlink:href="#DejaVuSans-35" transform="translate(186.855469 38.965625) scale(0.7)"/>
      </g>
     </g>
    </g>
    <g id="text_12">
     <!-- Relative Error ($L_{\infty}$) -->
     <g transform="translate(47.198437 297.0476) rotate(-90) scale(0.14 -0.14)">
      <defs>
       <path id="DejaVuSans-61" d="M 2194 1759 
Q 1497 1759 1228 1600 
Q 959 1441 959 1056 
Q 959 750 1161 570 
Q 1363 391 1709 391 
Q 2188 391 2477 730 
Q 2766 1069 2766 1631 
L 2766 1759 
L 2194 1759 
z
M 3341 1997 
L 3341 0 
L 2766 0 
L 2766 531 
Q 2569 213 2275 61 
Q 1981 -91 1556 -91 
Q 1019 -91 701 211 
Q 384 513 384 1019 
Q 384 1609 779 1909 
Q 1175 2209 1959 2209 
L 2766 2209 
L 2766 2266 
Q 2766 2663 2505 2880 
Q 2244 3097 1772 3097 
Q 1472 3097 1187 3025 
Q 903 2953 641 2809 
L 641 3341 
Q 956 3463 1253 3523 
Q 1550 3584 1831 3584 
Q 2591 3584 2966 3190 
Q 3341 2797 3341 1997 
z
" transform="scale(0.015625)"/>
       <path id="DejaVuSans-76" d="M 191 3500 
L 800 3500 
L 1894 563 
L 2988 3500 
L 3597 3500 
L 2284 0 
L 1503 0 
L 191 3500 
z
" transform="scale(0.015625)"/>
       <path id="DejaVuSans-45" d="M 628 4666 
L 3578 4666 
L 3578 4134 
L 1259 4134 
L 1259 2753 
L 3481 2753 
L 3481 2222 
L 1259 2222 
L 1259 531 
L 3634 531 
L 3634 0 
L 628 0 
L 628 4666 
z
" transform="scale(0.015625)"/>
       <path id="DejaVuSans-72" d="M 2631 2963 
Q 2534 3019 2420 3045 
Q 2306 3072 2169 3072 
Q 1681 3072 1420 2755 
Q 1159 2438 1159 1844 
L 1159 0 
L 581 0 
L 581 3500 
L 1159 3500 
L 1159 2956 
Q 1341 3275 1631 3429 
Q 1922 3584 2338 3584 
Q 2397 3584 2469 3576 
Q 2541 3569 2628 3553 
L 2631 2963 
z
" transform="scale(0.015625)"/>
       <path id="DejaVuSans-Oblique-4c" d="M 1075 4666 
L 1709 4666 
L 909 525 
L 3181 525 
L 3078 0 
L 172 0 
L 1075 4666 
z
" transform="scale(0.015625)"/>
       <path id="DejaVuSans-221e" d="M 2916 1091 
Q 2819 1203 2666 1466 
Q 2456 1091 2272 925 
Q 2041 725 1681 725 
Q 1259 725 981 1041 
Q 688 1372 688 1919 
Q 688 2444 981 2800 
Q 1244 3116 1688 3116 
Q 1916 3116 2084 3022 
Q 2281 2919 2416 2741 
Q 2541 2581 2666 2366 
Q 2875 2741 3059 2906 
Q 3291 3106 3650 3106 
Q 4072 3106 4350 2791 
Q 4644 2459 4644 1913 
Q 4644 1388 4350 1031 
Q 4088 716 3644 716 
Q 3416 716 3247 809 
Q 3078 894 2916 1091 
z
M 1647 1134 
Q 2163 1134 2472 1884 
Q 2075 2703 1647 2703 
Q 1334 2703 1175 2478 
Q 1003 2238 1003 1919 
Q 1003 1569 1175 1353 
Q 1350 1134 1647 1134 
z
M 3684 2697 
Q 3219 2697 2859 1947 
Q 3253 1128 3684 1128 
Q 3997 1128 4156 1353 
Q 4328 1594 4328 1913 
Q 4328 2263 4156 2478 
Q 3981 2697 3684 2697 
z
" transform="scale(0.015625)"/>
      </defs>
      <use xlink:href="#DejaVuSans-52" transform="translate(0 0.015625)"/>
      <use xlink:href="#DejaVuSans-65" transform="translate(69.482422 0.015625)"/>
      <use xlink:href="#DejaVuSans-6c" transform="translate(131.005859 0.015625)"/>
      <use xlink:href="#DejaVuSans-61" transform="translate(158.789062 0.015625)"/>
      <use xlink:href="#DejaVuSans-74" transform="translate(220.068359 0.015625)"/>
      <use xlink:href="#DejaVuSans-69" transform="translate(259.277344 0.015625)"/>
      <use xlink:href="#DejaVuSans-76" transform="translate(287.060547 0.015625)"/>
      <use xlink:href="#DejaVuSans-65" transform="translate(346.240234 0.015625)"/>
      <use xlink:href="#DejaVuSans-20" transform="translate(407.763672 0.015625)"/>
      <use xlink:href="#DejaVuSans-45" transform="translate(439.550781 0.015625)"/>
      <use xlink:href="#DejaVuSans-72" transform="translate(502.734375 0.015625)"/>
      <use xlink:href="#DejaVuSans-72" transform="translate(543.847656 0.015625)"/>
      <use xlink:href="#DejaVuSans-6f" transform="translate(584.960938 0.015625)"/>
      <use xlink:href="#DejaVuSans-72" transform="translate(646.142578 0.015625)"/>
      <use xlink:href="#DejaVuSans-20" transform="translate(687.255859 0.015625)"/>
      <use xlink:href="#DejaVuSans-28" transform="translate(719.042969 0.015625)"/>
      <use xlink:href="#DejaVuSans-Oblique-4c" transform="translate(758.056641 0.015625)"/>
      <use xlink:href="#DejaVuSans-221e" transform="translate(813.769531 -16.390625) scale(0.7)"/>
      <use xlink:href="#DejaVuSans-29" transform="translate(874.814453 0.015625)"/>
     </g>
    </g>
   </g>
   <g id="patch_3">
    <path d="M 89.01 410.7528 
L 89.01 55.3824 
" style="fill: none; stroke: #000000; stroke-width: 0.8; stroke-linejoin: miter; stroke-linecap: square"/>
   </g>
   <g id="patch_4">
    <path d="M 640.872 410.7528 
L 640.872 55.3824 
" style="fill: none; stroke: #000000; stroke-width: 0.8; stroke-linejoin: miter; stroke-linecap: square"/>
   </g>
   <g id="patch_5">
    <path d="M 89.01 410.7528 
L 640.872 410.7528 
" style="fill: none; stroke: #000000; stroke-width: 0.8; stroke-linejoin: miter; stroke-linecap: square"/>
   </g>
   <g id="patch_6">
    <path d="M 89.01 55.3824 
L 640.872 55.3824 
" style="fill: none; stroke: #000000; stroke-width: 0.8; stroke-linejoin: miter; stroke-linecap: square"/>
   </g>
   <g id="text_13">
    <!-- $(u-u_{true})/u_{true}$ -->
    <g transform="translate(307.501 49.3824) scale(0.16 -0.16)">
     <defs>
      <path id="DejaVuSans-Oblique-75" d="M 428 1388 
L 838 3500 
L 1416 3500 
L 1006 1409 
Q 975 1256 961 1147 
Q 947 1038 947 966 
Q 947 700 1109 554 
Q 1272 409 1569 409 
Q 2031 409 2368 721 
Q 2706 1034 2809 1563 
L 3194 3500 
L 3769 3500 
L 3091 0 
L 2516 0 
L 2631 550 
Q 2388 244 2052 76 
Q 1716 -91 1338 -91 
Q 878 -91 622 161 
Q 366 413 366 863 
Q 366 956 381 1097 
Q 397 1238 428 1388 
z
" transform="scale(0.015625)"/>
      <path id="DejaVuSans-Oblique-74" d="M 2706 3500 
L 2619 3053 
L 1472 3053 
L 1100 1153 
Q 1081 1047 1072 975 
Q 1063 903 1063 863 
Q 1063 663 1183 572 
Q 1303 481 1569 481 
L 2150 481 
L 2053 0 
L 1503 0 
Q 991 0 739 200 
Q 488 400 488 806 
Q 488 878 497 964 
Q 506 1050 525 1153 
L 897 3053 
L 409 3053 
L 500 3500 
L 978 3500 
L 1172 4494 
L 1747 4494 
L 1556 3500 
L 2706 3500 
z
" transform="scale(0.015625)"/>
      <path id="DejaVuSans-Oblique-72" d="M 2853 2969 
Q 2766 3016 2653 3041 
Q 2541 3066 2413 3066 
Q 1953 3066 1609 2717 
Q 1266 2369 1153 1784 
L 800 0 
L 225 0 
L 909 3500 
L 1484 3500 
L 1375 2956 
Q 1603 3259 1920 3421 
Q 2238 3584 2597 3584 
Q 2691 3584 2781 3573 
Q 2872 3563 2963 3538 
L 2853 2969 
z
" transform="scale(0.015625)"/>
      <path id="DejaVuSans-Oblique-65" d="M 3078 2063 
Q 3088 2113 3092 2166 
Q 3097 2219 3097 2272 
Q 3097 2653 2873 2875 
Q 2650 3097 2266 3097 
Q 1838 3097 1509 2826 
Q 1181 2556 1013 2059 
L 3078 2063 
z
M 3578 1613 
L 903 1613 
Q 884 1494 878 1425 
Q 872 1356 872 1306 
Q 872 872 1139 634 
Q 1406 397 1894 397 
Q 2269 397 2603 481 
Q 2938 566 3225 728 
L 3116 159 
Q 2806 34 2476 -28 
Q 2147 -91 1806 -91 
Q 1078 -91 686 257 
Q 294 606 294 1247 
Q 294 1794 489 2264 
Q 684 2734 1063 3103 
Q 1306 3334 1642 3459 
Q 1978 3584 2356 3584 
Q 2950 3584 3301 3228 
Q 3653 2872 3653 2272 
Q 3653 2128 3634 1964 
Q 3616 1800 3578 1613 
z
" transform="scale(0.015625)"/>
      <path id="DejaVuSans-2f" d="M 1625 4666 
L 2156 4666 
L 531 -594 
L 0 -594 
L 1625 4666 
z
" transform="scale(0.015625)"/>
     </defs>
     <use xlink:href="#DejaVuSans-28" transform="translate(0 0.125)"/>
     <use xlink:href="#DejaVuSans-Oblique-75" transform="translate(39.013672 0.125)"/>
     <use xlink:href="#DejaVuSans-2212" transform="translate(121.875 0.125)"/>
     <use xlink:href="#DejaVuSans-Oblique-75" transform="translate(225.146484 0.125)"/>
     <use xlink:href="#DejaVuSans-Oblique-74" transform="translate(288.525391 -16.28125) scale(0.7)"/>
     <use xlink:href="#DejaVuSans-Oblique-72" transform="translate(315.97168 -16.28125) scale(0.7)"/>
     <use xlink:href="#DejaVuSans-Oblique-75" transform="translate(344.750977 -16.28125) scale(0.7)"/>
     <use xlink:href="#DejaVuSans-Oblique-65" transform="translate(389.116211 -16.28125) scale(0.7)"/>
     <use xlink:href="#DejaVuSans-29" transform="translate(434.916992 0.125)"/>
     <use xlink:href="#DejaVuSans-2f" transform="translate(473.930664 0.125)"/>
     <use xlink:href="#DejaVuSans-Oblique-75" transform="translate(507.62207 0.125)"/>
     <use xlink:href="#DejaVuSans-Oblique-74" transform="translate(571.000977 -16.28125) scale(0.7)"/>
     <use xlink:href="#DejaVuSans-Oblique-72" transform="translate(598.447266 -16.28125) scale(0.7)"/>
     <use xlink:href="#DejaVuSans-Oblique-75" transform="translate(627.226562 -16.28125) scale(0.7)"/>
     <use xlink:href="#DejaVuSans-Oblique-65" transform="translate(671.591797 -16.28125) scale(0.7)"/>
    </g>
   </g>
   <g id="legend_1">
    <g id="patch_7">
     <path d="M 297.341 405.7528 
L 432.541 405.7528 
Q 434.541 405.7528 434.541 403.7528 
L 434.541 279.1528 
Q 434.541 277.1528 432.541 277.1528 
L 297.341 277.1528 
Q 295.341 277.1528 295.341 279.1528 
L 295.341 403.7528 
Q 295.341 405.7528 297.341 405.7528 
z
" style="fill: #ffffff; opacity: 0.8; stroke: #cccccc; stroke-linejoin: miter"/>
    </g>
    <g id="PathCollection_9">
     <g>
      <use xlink:href="#md446280335" x="309.341" y="286.1278" style="fill: #0000ff; stroke: #0000ff; stroke-width: 1.5"/>
     </g>
    </g>
    <g id="text_14">
     <!-- $u = u_{qbxrec}$ ($p_{QBX}$=5) -->
     <g transform="translate(327.341 288.7528) scale(0.1 -0.1)">
      <defs>
       <path id="DejaVuSans-3d" d="M 678 2906 
L 4684 2906 
L 4684 2381 
L 678 2381 
L 678 2906 
z
M 678 1631 
L 4684 1631 
L 4684 1100 
L 678 1100 
L 678 1631 
z
" transform="scale(0.015625)"/>
       <path id="DejaVuSans-Oblique-71" d="M 2669 525 
Q 2438 222 2123 65 
Q 1809 -91 1428 -91 
Q 897 -91 595 267 
Q 294 625 294 1253 
Q 294 1759 480 2231 
Q 666 2703 1013 3078 
Q 1238 3322 1530 3453 
Q 1822 3584 2144 3584 
Q 2531 3584 2781 3431 
Q 3031 3278 3144 2969 
L 3244 3494 
L 3822 3494 
L 2888 -1319 
L 2309 -1319 
L 2669 525 
z
M 891 1338 
Q 891 875 1084 633 
Q 1278 391 1644 391 
Q 2188 391 2572 911 
Q 2956 1431 2956 2175 
Q 2956 2625 2757 2864 
Q 2559 3103 2188 3103 
Q 1916 3103 1684 2976 
Q 1453 2850 1281 2606 
Q 1100 2350 995 2006 
Q 891 1663 891 1338 
z
" transform="scale(0.015625)"/>
       <path id="DejaVuSans-Oblique-62" d="M 3169 2138 
Q 3169 2591 2961 2847 
Q 2753 3103 2388 3103 
Q 2122 3103 1889 2973 
Q 1656 2844 1484 2597 
Q 1303 2338 1198 1995 
Q 1094 1653 1094 1313 
Q 1094 881 1298 636 
Q 1503 391 1863 391 
Q 2134 391 2365 517 
Q 2597 644 2772 891 
Q 2950 1147 3059 1487 
Q 3169 1828 3169 2138 
z
M 1381 2969 
Q 1594 3256 1914 3420 
Q 2234 3584 2584 3584 
Q 3122 3584 3439 3221 
Q 3756 2859 3756 2241 
Q 3756 1734 3570 1259 
Q 3384 784 3041 416 
Q 2816 172 2522 40 
Q 2228 -91 1906 -91 
Q 1566 -91 1316 65 
Q 1066 222 909 531 
L 806 0 
L 231 0 
L 1178 4863 
L 1753 4863 
L 1381 2969 
z
" transform="scale(0.015625)"/>
       <path id="DejaVuSans-Oblique-78" d="M 3841 3500 
L 2234 1784 
L 3219 0 
L 2559 0 
L 1819 1388 
L 531 0 
L -166 0 
L 1556 1844 
L 641 3500 
L 1300 3500 
L 1972 2234 
L 3144 3500 
L 3841 3500 
z
" transform="scale(0.015625)"/>
       <path id="DejaVuSans-Oblique-63" d="M 3431 3366 
L 3316 2797 
Q 3109 2947 2876 3022 
Q 2644 3097 2394 3097 
Q 2119 3097 1870 3000 
Q 1622 2903 1453 2725 
Q 1184 2453 1037 2087 
Q 891 1722 891 1331 
Q 891 859 1127 628 
Q 1363 397 1844 397 
Q 2081 397 2348 469 
Q 2616 541 2906 684 
L 2797 116 
Q 2547 13 2283 -39 
Q 2019 -91 1741 -91 
Q 1044 -91 669 257 
Q 294 606 294 1253 
Q 294 1797 489 2255 
Q 684 2713 1069 3078 
Q 1331 3328 1684 3456 
Q 2038 3584 2456 3584 
Q 2700 3584 2940 3529 
Q 3181 3475 3431 3366 
z
" transform="scale(0.015625)"/>
       <path id="DejaVuSans-Oblique-70" d="M 3175 2156 
Q 3175 2616 2975 2859 
Q 2775 3103 2400 3103 
Q 2144 3103 1911 2972 
Q 1678 2841 1497 2591 
Q 1319 2344 1212 1994 
Q 1106 1644 1106 1300 
Q 1106 863 1306 627 
Q 1506 391 1875 391 
Q 2147 391 2380 519 
Q 2613 647 2778 891 
Q 2956 1147 3065 1494 
Q 3175 1841 3175 2156 
z
M 1394 2969 
Q 1625 3272 1939 3428 
Q 2253 3584 2638 3584 
Q 3175 3584 3472 3232 
Q 3769 2881 3769 2247 
Q 3769 1728 3584 1258 
Q 3400 788 3053 416 
Q 2822 169 2531 39 
Q 2241 -91 1919 -91 
Q 1547 -91 1294 64 
Q 1041 219 916 525 
L 556 -1331 
L -19 -1331 
L 922 3500 
L 1497 3500 
L 1394 2969 
z
" transform="scale(0.015625)"/>
       <path id="DejaVuSans-Oblique-51" d="M 2309 -84 
Q 2275 -88 2237 -89 
Q 2200 -91 2125 -91 
Q 1250 -91 756 411 
Q 263 913 263 1797 
Q 263 2319 452 2844 
Q 641 3369 978 3788 
Q 1369 4269 1858 4509 
Q 2347 4750 2938 4750 
Q 3794 4750 4287 4245 
Q 4781 3741 4781 2869 
Q 4781 1928 4265 1147 
Q 3750 366 2919 44 
L 3553 -825 
L 2847 -825 
L 2309 -84 
z
M 2919 4238 
Q 2400 4238 2003 3986 
Q 1606 3734 1313 3219 
Q 1125 2891 1026 2522 
Q 928 2153 928 1778 
Q 928 1128 1239 775 
Q 1550 422 2119 422 
Q 2631 422 3032 676 
Q 3434 931 3719 1434 
Q 3909 1772 4009 2142 
Q 4109 2513 4109 2881 
Q 4109 3528 3796 3883 
Q 3484 4238 2919 4238 
z
" transform="scale(0.015625)"/>
       <path id="DejaVuSans-Oblique-42" d="M 1081 4666 
L 2694 4666 
Q 3350 4666 3675 4422 
Q 4000 4178 4000 3688 
Q 4000 3238 3720 2911 
Q 3441 2584 2988 2516 
Q 3375 2428 3569 2181 
Q 3763 1934 3763 1522 
Q 3763 819 3242 409 
Q 2722 0 1819 0 
L 172 0 
L 1081 4666 
z
M 1234 2228 
L 903 519 
L 1919 519 
Q 2491 519 2800 781 
Q 3109 1044 3109 1522 
Q 3109 1891 2904 2059 
Q 2700 2228 2247 2228 
L 1234 2228 
z
M 1606 4147 
L 1331 2741 
L 2272 2741 
Q 2775 2741 3058 2959 
Q 3341 3178 3341 3566 
Q 3341 3869 3150 4008 
Q 2959 4147 2541 4147 
L 1606 4147 
z
" transform="scale(0.015625)"/>
       <path id="DejaVuSans-Oblique-58" d="M 878 4666 
L 1516 4666 
L 2316 2981 
L 3763 4666 
L 4500 4666 
L 2578 2438 
L 3738 0 
L 3103 0 
L 2163 1966 
L 459 0 
L -275 0 
L 1906 2509 
L 878 4666 
z
" transform="scale(0.015625)"/>
      </defs>
      <use xlink:href="#DejaVuSans-Oblique-75" transform="translate(0 0.125)"/>
      <use xlink:href="#DejaVuSans-3d" transform="translate(82.861328 0.125)"/>
      <use xlink:href="#DejaVuSans-Oblique-75" transform="translate(186.132812 0.125)"/>
      <use xlink:href="#DejaVuSans-Oblique-71" transform="translate(249.511719 -16.28125) scale(0.7)"/>
      <use xlink:href="#DejaVuSans-Oblique-62" transform="translate(293.945312 -16.28125) scale(0.7)"/>
      <use xlink:href="#DejaVuSans-Oblique-78" transform="translate(338.378906 -16.28125) scale(0.7)"/>
      <use xlink:href="#DejaVuSans-Oblique-72" transform="translate(379.804688 -16.28125) scale(0.7)"/>
      <use xlink:href="#DejaVuSans-Oblique-65" transform="translate(408.583984 -16.28125) scale(0.7)"/>
      <use xlink:href="#DejaVuSans-Oblique-63" transform="translate(451.650391 -16.28125) scale(0.7)"/>
      <use xlink:href="#DejaVuSans-20" transform="translate(492.871094 0.125)"/>
      <use xlink:href="#DejaVuSans-28" transform="translate(524.658203 0.125)"/>
      <use xlink:href="#DejaVuSans-Oblique-70" transform="translate(563.671875 0.125)"/>
      <use xlink:href="#DejaVuSans-Oblique-51" transform="translate(627.148438 -16.28125) scale(0.7)"/>
      <use xlink:href="#DejaVuSans-Oblique-42" transform="translate(682.246094 -16.28125) scale(0.7)"/>
      <use xlink:href="#DejaVuSans-Oblique-58" transform="translate(730.268555 -16.28125) scale(0.7)"/>
      <use xlink:href="#DejaVuSans-3d" transform="translate(780.957031 0.125)"/>
      <use xlink:href="#DejaVuSans-35" transform="translate(864.746094 0.125)"/>
      <use xlink:href="#DejaVuSans-29" transform="translate(928.369141 0.125)"/>
     </g>
    </g>
    <g id="PathCollection_10">
     <g>
      <use xlink:href="#ma44c2b8120" x="309.341" y="301.8278" style="fill: #0000ff; stroke: #0000ff; stroke-width: 1.5"/>
     </g>
    </g>
    <g id="text_15">
     <!-- $u = u_{qbx}$ ($p_{QBX}$=5) -->
     <g transform="translate(327.341 304.4528) scale(0.1 -0.1)">
      <use xlink:href="#DejaVuSans-Oblique-75" transform="translate(0 0.125)"/>
      <use xlink:href="#DejaVuSans-3d" transform="translate(82.861328 0.125)"/>
      <use xlink:href="#DejaVuSans-Oblique-75" transform="translate(186.132812 0.125)"/>
      <use xlink:href="#DejaVuSans-Oblique-71" transform="translate(249.511719 -16.28125) scale(0.7)"/>
      <use xlink:href="#DejaVuSans-Oblique-62" transform="translate(293.945312 -16.28125) scale(0.7)"/>
      <use xlink:href="#DejaVuSans-Oblique-78" transform="translate(338.378906 -16.28125) scale(0.7)"/>
      <use xlink:href="#DejaVuSans-20" transform="translate(382.539062 0.125)"/>
      <use xlink:href="#DejaVuSans-28" transform="translate(414.326172 0.125)"/>
      <use xlink:href="#DejaVuSans-Oblique-70" transform="translate(453.339844 0.125)"/>
      <use xlink:href="#DejaVuSans-Oblique-51" transform="translate(516.816406 -16.28125) scale(0.7)"/>
      <use xlink:href="#DejaVuSans-Oblique-42" transform="translate(571.914062 -16.28125) scale(0.7)"/>
      <use xlink:href="#DejaVuSans-Oblique-58" transform="translate(619.936523 -16.28125) scale(0.7)"/>
      <use xlink:href="#DejaVuSans-3d" transform="translate(670.625 0.125)"/>
      <use xlink:href="#DejaVuSans-35" transform="translate(754.414062 0.125)"/>
      <use xlink:href="#DejaVuSans-29" transform="translate(818.037109 0.125)"/>
     </g>
    </g>
    <g id="PathCollection_11">
     <g>
      <use xlink:href="#m94605443f4" x="309.341" y="317.5278" style="fill: #008000; stroke: #008000; stroke-width: 1.5"/>
     </g>
    </g>
    <g id="text_16">
     <!-- $u = u_{qbxrec}$ ($p_{QBX}$=7) -->
     <g transform="translate(327.341 320.1528) scale(0.1 -0.1)">
      <use xlink:href="#DejaVuSans-Oblique-75" transform="translate(0 0.125)"/>
      <use xlink:href="#DejaVuSans-3d" transform="translate(82.861328 0.125)"/>
      <use xlink:href="#DejaVuSans-Oblique-75" transform="translate(186.132812 0.125)"/>
      <use xlink:href="#DejaVuSans-Oblique-71" transform="translate(249.511719 -16.28125) scale(0.7)"/>
      <use xlink:href="#DejaVuSans-Oblique-62" transform="translate(293.945312 -16.28125) scale(0.7)"/>
      <use xlink:href="#DejaVuSans-Oblique-78" transform="translate(338.378906 -16.28125) scale(0.7)"/>
      <use xlink:href="#DejaVuSans-Oblique-72" transform="translate(379.804688 -16.28125) scale(0.7)"/>
      <use xlink:href="#DejaVuSans-Oblique-65" transform="translate(408.583984 -16.28125) scale(0.7)"/>
      <use xlink:href="#DejaVuSans-Oblique-63" transform="translate(451.650391 -16.28125) scale(0.7)"/>
      <use xlink:href="#DejaVuSans-20" transform="translate(492.871094 0.125)"/>
      <use xlink:href="#DejaVuSans-28" transform="translate(524.658203 0.125)"/>
      <use xlink:href="#DejaVuSans-Oblique-70" transform="translate(563.671875 0.125)"/>
      <use xlink:href="#DejaVuSans-Oblique-51" transform="translate(627.148438 -16.28125) scale(0.7)"/>
      <use xlink:href="#DejaVuSans-Oblique-42" transform="translate(682.246094 -16.28125) scale(0.7)"/>
      <use xlink:href="#DejaVuSans-Oblique-58" transform="translate(730.268555 -16.28125) scale(0.7)"/>
      <use xlink:href="#DejaVuSans-3d" transform="translate(780.957031 0.125)"/>
      <use xlink:href="#DejaVuSans-37" transform="translate(864.746094 0.125)"/>
      <use xlink:href="#DejaVuSans-29" transform="translate(928.369141 0.125)"/>
     </g>
    </g>
    <g id="PathCollection_12">
     <g>
      <use xlink:href="#m4fd43e333b" x="309.341" y="333.2278" style="fill: #008000; stroke: #008000; stroke-width: 1.5"/>
     </g>
    </g>
    <g id="text_17">
     <!-- $u = u_{qbx}$ ($p_{QBX}$=7) -->
     <g transform="translate(327.341 335.8528) scale(0.1 -0.1)">
      <use xlink:href="#DejaVuSans-Oblique-75" transform="translate(0 0.125)"/>
      <use xlink:href="#DejaVuSans-3d" transform="translate(82.861328 0.125)"/>
      <use xlink:href="#DejaVuSans-Oblique-75" transform="translate(186.132812 0.125)"/>
      <use xlink:href="#DejaVuSans-Oblique-71" transform="translate(249.511719 -16.28125) scale(0.7)"/>
      <use xlink:href="#DejaVuSans-Oblique-62" transform="translate(293.945312 -16.28125) scale(0.7)"/>
      <use xlink:href="#DejaVuSans-Oblique-78" transform="translate(338.378906 -16.28125) scale(0.7)"/>
      <use xlink:href="#DejaVuSans-20" transform="translate(382.539062 0.125)"/>
      <use xlink:href="#DejaVuSans-28" transform="translate(414.326172 0.125)"/>
      <use xlink:href="#DejaVuSans-Oblique-70" transform="translate(453.339844 0.125)"/>
      <use xlink:href="#DejaVuSans-Oblique-51" transform="translate(516.816406 -16.28125) scale(0.7)"/>
      <use xlink:href="#DejaVuSans-Oblique-42" transform="translate(571.914062 -16.28125) scale(0.7)"/>
      <use xlink:href="#DejaVuSans-Oblique-58" transform="translate(619.936523 -16.28125) scale(0.7)"/>
      <use xlink:href="#DejaVuSans-3d" transform="translate(670.625 0.125)"/>
      <use xlink:href="#DejaVuSans-37" transform="translate(754.414062 0.125)"/>
      <use xlink:href="#DejaVuSans-29" transform="translate(818.037109 0.125)"/>
     </g>
    </g>
    <g id="PathCollection_13">
     <g>
      <use xlink:href="#mebd840533d" x="309.341" y="348.9278" style="fill: #ff0000; stroke: #ff0000; stroke-width: 1.5"/>
     </g>
    </g>
    <g id="text_18">
     <!-- $u = u_{qbxrec}$ ($p_{QBX}$=9) -->
     <g transform="translate(327.341 351.5528) scale(0.1 -0.1)">
      <use xlink:href="#DejaVuSans-Oblique-75" transform="translate(0 0.125)"/>
      <use xlink:href="#DejaVuSans-3d" transform="translate(82.861328 0.125)"/>
      <use xlink:href="#DejaVuSans-Oblique-75" transform="translate(186.132812 0.125)"/>
      <use xlink:href="#DejaVuSans-Oblique-71" transform="translate(249.511719 -16.28125) scale(0.7)"/>
      <use xlink:href="#DejaVuSans-Oblique-62" transform="translate(293.945312 -16.28125) scale(0.7)"/>
      <use xlink:href="#DejaVuSans-Oblique-78" transform="translate(338.378906 -16.28125) scale(0.7)"/>
      <use xlink:href="#DejaVuSans-Oblique-72" transform="translate(379.804688 -16.28125) scale(0.7)"/>
      <use xlink:href="#DejaVuSans-Oblique-65" transform="translate(408.583984 -16.28125) scale(0.7)"/>
      <use xlink:href="#DejaVuSans-Oblique-63" transform="translate(451.650391 -16.28125) scale(0.7)"/>
      <use xlink:href="#DejaVuSans-20" transform="translate(492.871094 0.125)"/>
      <use xlink:href="#DejaVuSans-28" transform="translate(524.658203 0.125)"/>
      <use xlink:href="#DejaVuSans-Oblique-70" transform="translate(563.671875 0.125)"/>
      <use xlink:href="#DejaVuSans-Oblique-51" transform="translate(627.148438 -16.28125) scale(0.7)"/>
      <use xlink:href="#DejaVuSans-Oblique-42" transform="translate(682.246094 -16.28125) scale(0.7)"/>
      <use xlink:href="#DejaVuSans-Oblique-58" transform="translate(730.268555 -16.28125) scale(0.7)"/>
      <use xlink:href="#DejaVuSans-3d" transform="translate(780.957031 0.125)"/>
      <use xlink:href="#DejaVuSans-39" transform="translate(864.746094 0.125)"/>
      <use xlink:href="#DejaVuSans-29" transform="translate(928.369141 0.125)"/>
     </g>
    </g>
    <g id="PathCollection_14">
     <g>
      <use xlink:href="#m4a94e71f6f" x="309.341" y="364.6278" style="fill: #ff0000; stroke: #ff0000; stroke-width: 1.5"/>
     </g>
    </g>
    <g id="text_19">
     <!-- $u = u_{qbx}$ ($p_{QBX}$=9) -->
     <g transform="translate(327.341 367.2528) scale(0.1 -0.1)">
      <use xlink:href="#DejaVuSans-Oblique-75" transform="translate(0 0.125)"/>
      <use xlink:href="#DejaVuSans-3d" transform="translate(82.861328 0.125)"/>
      <use xlink:href="#DejaVuSans-Oblique-75" transform="translate(186.132812 0.125)"/>
      <use xlink:href="#DejaVuSans-Oblique-71" transform="translate(249.511719 -16.28125) scale(0.7)"/>
      <use xlink:href="#DejaVuSans-Oblique-62" transform="translate(293.945312 -16.28125) scale(0.7)"/>
      <use xlink:href="#DejaVuSans-Oblique-78" transform="translate(338.378906 -16.28125) scale(0.7)"/>
      <use xlink:href="#DejaVuSans-20" transform="translate(382.539062 0.125)"/>
      <use xlink:href="#DejaVuSans-28" transform="translate(414.326172 0.125)"/>
      <use xlink:href="#DejaVuSans-Oblique-70" transform="translate(453.339844 0.125)"/>
      <use xlink:href="#DejaVuSans-Oblique-51" transform="translate(516.816406 -16.28125) scale(0.7)"/>
      <use xlink:href="#DejaVuSans-Oblique-42" transform="translate(571.914062 -16.28125) scale(0.7)"/>
      <use xlink:href="#DejaVuSans-Oblique-58" transform="translate(619.936523 -16.28125) scale(0.7)"/>
      <use xlink:href="#DejaVuSans-3d" transform="translate(670.625 0.125)"/>
      <use xlink:href="#DejaVuSans-39" transform="translate(754.414062 0.125)"/>
      <use xlink:href="#DejaVuSans-29" transform="translate(818.037109 0.125)"/>
     </g>
    </g>
    <g id="PathCollection_15">
     <g>
      <use xlink:href="#mc0095e8b9c" x="309.341" y="380.3278" style="fill: #00bfbf; stroke: #00bfbf; stroke-width: 1.5"/>
     </g>
    </g>
    <g id="text_20">
     <!-- $u = u_{qbxrec}$ ($p_{QBX}$=11) -->
     <g transform="translate(327.341 382.9528) scale(0.1 -0.1)">
      <use xlink:href="#DejaVuSans-Oblique-75" transform="translate(0 0.125)"/>
      <use xlink:href="#DejaVuSans-3d" transform="translate(82.861328 0.125)"/>
      <use xlink:href="#DejaVuSans-Oblique-75" transform="translate(186.132812 0.125)"/>
      <use xlink:href="#DejaVuSans-Oblique-71" transform="translate(249.511719 -16.28125) scale(0.7)"/>
      <use xlink:href="#DejaVuSans-Oblique-62" transform="translate(293.945312 -16.28125) scale(0.7)"/>
      <use xlink:href="#DejaVuSans-Oblique-78" transform="translate(338.378906 -16.28125) scale(0.7)"/>
      <use xlink:href="#DejaVuSans-Oblique-72" transform="translate(379.804688 -16.28125) scale(0.7)"/>
      <use xlink:href="#DejaVuSans-Oblique-65" transform="translate(408.583984 -16.28125) scale(0.7)"/>
      <use xlink:href="#DejaVuSans-Oblique-63" transform="translate(451.650391 -16.28125) scale(0.7)"/>
      <use xlink:href="#DejaVuSans-20" transform="translate(492.871094 0.125)"/>
      <use xlink:href="#DejaVuSans-28" transform="translate(524.658203 0.125)"/>
      <use xlink:href="#DejaVuSans-Oblique-70" transform="translate(563.671875 0.125)"/>
      <use xlink:href="#DejaVuSans-Oblique-51" transform="translate(627.148438 -16.28125) scale(0.7)"/>
      <use xlink:href="#DejaVuSans-Oblique-42" transform="translate(682.246094 -16.28125) scale(0.7)"/>
      <use xlink:href="#DejaVuSans-Oblique-58" transform="translate(730.268555 -16.28125) scale(0.7)"/>
      <use xlink:href="#DejaVuSans-3d" transform="translate(780.957031 0.125)"/>
      <use xlink:href="#DejaVuSans-31" transform="translate(864.746094 0.125)"/>
      <use xlink:href="#DejaVuSans-31" transform="translate(928.369141 0.125)"/>
      <use xlink:href="#DejaVuSans-29" transform="translate(991.992188 0.125)"/>
     </g>
    </g>
    <g id="PathCollection_16">
     <g>
      <use xlink:href="#m16f2e11dd5" x="309.341" y="396.0278" style="fill: #00bfbf; stroke: #00bfbf; stroke-width: 1.5"/>
     </g>
    </g>
    <g id="text_21">
     <!-- $u = u_{qbx}$ ($p_{QBX}$=11) -->
     <g transform="translate(327.341 398.6528) scale(0.1 -0.1)">
      <use xlink:href="#DejaVuSans-Oblique-75" transform="translate(0 0.125)"/>
      <use xlink:href="#DejaVuSans-3d" transform="translate(82.861328 0.125)"/>
      <use xlink:href="#DejaVuSans-Oblique-75" transform="translate(186.132812 0.125)"/>
      <use xlink:href="#DejaVuSans-Oblique-71" transform="translate(249.511719 -16.28125) scale(0.7)"/>
      <use xlink:href="#DejaVuSans-Oblique-62" transform="translate(293.945312 -16.28125) scale(0.7)"/>
      <use xlink:href="#DejaVuSans-Oblique-78" transform="translate(338.378906 -16.28125) scale(0.7)"/>
      <use xlink:href="#DejaVuSans-20" transform="translate(382.539062 0.125)"/>
      <use xlink:href="#DejaVuSans-28" transform="translate(414.326172 0.125)"/>
      <use xlink:href="#DejaVuSans-Oblique-70" transform="translate(453.339844 0.125)"/>
      <use xlink:href="#DejaVuSans-Oblique-51" transform="translate(516.816406 -16.28125) scale(0.7)"/>
      <use xlink:href="#DejaVuSans-Oblique-42" transform="translate(571.914062 -16.28125) scale(0.7)"/>
      <use xlink:href="#DejaVuSans-Oblique-58" transform="translate(619.936523 -16.28125) scale(0.7)"/>
      <use xlink:href="#DejaVuSans-3d" transform="translate(670.625 0.125)"/>
      <use xlink:href="#DejaVuSans-31" transform="translate(754.414062 0.125)"/>
      <use xlink:href="#DejaVuSans-31" transform="translate(818.037109 0.125)"/>
      <use xlink:href="#DejaVuSans-29" transform="translate(881.660156 0.125)"/>
     </g>
    </g>
   </g>
  </g>
  <g id="text_22">
   <!-- Laplace 2D: Ellipse SLP Boundary Evaluation Error ($m=100$, $p_{offaxis}=8$) -->
   <g transform="translate(69.56 21.3904) scale(0.16 -0.16)">
    <defs>
     <path id="DejaVuSans-4c" d="M 628 4666 
L 1259 4666 
L 1259 531 
L 3531 531 
L 3531 0 
L 628 0 
L 628 4666 
z
" transform="scale(0.015625)"/>
     <path id="DejaVuSans-70" d="M 1159 525 
L 1159 -1331 
L 581 -1331 
L 581 3500 
L 1159 3500 
L 1159 2969 
Q 1341 3281 1617 3432 
Q 1894 3584 2278 3584 
Q 2916 3584 3314 3078 
Q 3713 2572 3713 1747 
Q 3713 922 3314 415 
Q 2916 -91 2278 -91 
Q 1894 -91 1617 61 
Q 1341 213 1159 525 
z
M 3116 1747 
Q 3116 2381 2855 2742 
Q 2594 3103 2138 3103 
Q 1681 3103 1420 2742 
Q 1159 2381 1159 1747 
Q 1159 1113 1420 752 
Q 1681 391 2138 391 
Q 2594 391 2855 752 
Q 3116 1113 3116 1747 
z
" transform="scale(0.015625)"/>
     <path id="DejaVuSans-63" d="M 3122 3366 
L 3122 2828 
Q 2878 2963 2633 3030 
Q 2388 3097 2138 3097 
Q 1578 3097 1268 2742 
Q 959 2388 959 1747 
Q 959 1106 1268 751 
Q 1578 397 2138 397 
Q 2388 397 2633 464 
Q 2878 531 3122 666 
L 3122 134 
Q 2881 22 2623 -34 
Q 2366 -91 2075 -91 
Q 1284 -91 818 406 
Q 353 903 353 1747 
Q 353 2603 823 3093 
Q 1294 3584 2113 3584 
Q 2378 3584 2631 3529 
Q 2884 3475 3122 3366 
z
" transform="scale(0.015625)"/>
     <path id="DejaVuSans-44" d="M 1259 4147 
L 1259 519 
L 2022 519 
Q 2988 519 3436 956 
Q 3884 1394 3884 2338 
Q 3884 3275 3436 3711 
Q 2988 4147 2022 4147 
L 1259 4147 
z
M 628 4666 
L 1925 4666 
Q 3281 4666 3915 4102 
Q 4550 3538 4550 2338 
Q 4550 1131 3912 565 
Q 3275 0 1925 0 
L 628 0 
L 628 4666 
z
" transform="scale(0.015625)"/>
     <path id="DejaVuSans-3a" d="M 750 794 
L 1409 794 
L 1409 0 
L 750 0 
L 750 794 
z
M 750 3309 
L 1409 3309 
L 1409 2516 
L 750 2516 
L 750 3309 
z
" transform="scale(0.015625)"/>
     <path id="DejaVuSans-53" d="M 3425 4513 
L 3425 3897 
Q 3066 4069 2747 4153 
Q 2428 4238 2131 4238 
Q 1616 4238 1336 4038 
Q 1056 3838 1056 3469 
Q 1056 3159 1242 3001 
Q 1428 2844 1947 2747 
L 2328 2669 
Q 3034 2534 3370 2195 
Q 3706 1856 3706 1288 
Q 3706 609 3251 259 
Q 2797 -91 1919 -91 
Q 1588 -91 1214 -16 
Q 841 59 441 206 
L 441 856 
Q 825 641 1194 531 
Q 1563 422 1919 422 
Q 2459 422 2753 634 
Q 3047 847 3047 1241 
Q 3047 1584 2836 1778 
Q 2625 1972 2144 2069 
L 1759 2144 
Q 1053 2284 737 2584 
Q 422 2884 422 3419 
Q 422 4038 858 4394 
Q 1294 4750 2059 4750 
Q 2388 4750 2728 4690 
Q 3069 4631 3425 4513 
z
" transform="scale(0.015625)"/>
     <path id="DejaVuSans-50" d="M 1259 4147 
L 1259 2394 
L 2053 2394 
Q 2494 2394 2734 2622 
Q 2975 2850 2975 3272 
Q 2975 3691 2734 3919 
Q 2494 4147 2053 4147 
L 1259 4147 
z
M 628 4666 
L 2053 4666 
Q 2838 4666 3239 4311 
Q 3641 3956 3641 3272 
Q 3641 2581 3239 2228 
Q 2838 1875 2053 1875 
L 1259 1875 
L 1259 0 
L 628 0 
L 628 4666 
z
" transform="scale(0.015625)"/>
     <path id="DejaVuSans-42" d="M 1259 2228 
L 1259 519 
L 2272 519 
Q 2781 519 3026 730 
Q 3272 941 3272 1375 
Q 3272 1813 3026 2020 
Q 2781 2228 2272 2228 
L 1259 2228 
z
M 1259 4147 
L 1259 2741 
L 2194 2741 
Q 2656 2741 2882 2914 
Q 3109 3088 3109 3444 
Q 3109 3797 2882 3972 
Q 2656 4147 2194 4147 
L 1259 4147 
z
M 628 4666 
L 2241 4666 
Q 2963 4666 3353 4366 
Q 3744 4066 3744 3513 
Q 3744 3084 3544 2831 
Q 3344 2578 2956 2516 
Q 3422 2416 3680 2098 
Q 3938 1781 3938 1306 
Q 3938 681 3513 340 
Q 3088 0 2303 0 
L 628 0 
L 628 4666 
z
" transform="scale(0.015625)"/>
     <path id="DejaVuSans-64" d="M 2906 2969 
L 2906 4863 
L 3481 4863 
L 3481 0 
L 2906 0 
L 2906 525 
Q 2725 213 2448 61 
Q 2172 -91 1784 -91 
Q 1150 -91 751 415 
Q 353 922 353 1747 
Q 353 2572 751 3078 
Q 1150 3584 1784 3584 
Q 2172 3584 2448 3432 
Q 2725 3281 2906 2969 
z
M 947 1747 
Q 947 1113 1208 752 
Q 1469 391 1925 391 
Q 2381 391 2643 752 
Q 2906 1113 2906 1747 
Q 2906 2381 2643 2742 
Q 2381 3103 1925 3103 
Q 1469 3103 1208 2742 
Q 947 2381 947 1747 
z
" transform="scale(0.015625)"/>
     <path id="DejaVuSans-79" d="M 2059 -325 
Q 1816 -950 1584 -1140 
Q 1353 -1331 966 -1331 
L 506 -1331 
L 506 -850 
L 844 -850 
Q 1081 -850 1212 -737 
Q 1344 -625 1503 -206 
L 1606 56 
L 191 3500 
L 800 3500 
L 1894 763 
L 2988 3500 
L 3597 3500 
L 2059 -325 
z
" transform="scale(0.015625)"/>
     <path id="DejaVuSans-Oblique-6d" d="M 5747 2113 
L 5338 0 
L 4763 0 
L 5166 2094 
Q 5191 2228 5203 2325 
Q 5216 2422 5216 2491 
Q 5216 2772 5059 2928 
Q 4903 3084 4622 3084 
Q 4203 3084 3875 2770 
Q 3547 2456 3450 1953 
L 3066 0 
L 2491 0 
L 2900 2094 
Q 2925 2209 2937 2307 
Q 2950 2406 2950 2484 
Q 2950 2769 2794 2926 
Q 2638 3084 2363 3084 
Q 1938 3084 1609 2770 
Q 1281 2456 1184 1953 
L 800 0 
L 225 0 
L 909 3500 
L 1484 3500 
L 1375 2956 
Q 1609 3263 1923 3423 
Q 2238 3584 2597 3584 
Q 2978 3584 3223 3384 
Q 3469 3184 3519 2828 
Q 3781 3197 4126 3390 
Q 4472 3584 4856 3584 
Q 5306 3584 5551 3325 
Q 5797 3066 5797 2591 
Q 5797 2488 5784 2364 
Q 5772 2241 5747 2113 
z
" transform="scale(0.015625)"/>
     <path id="DejaVuSans-2c" d="M 750 794 
L 1409 794 
L 1409 256 
L 897 -744 
L 494 -744 
L 750 256 
L 750 794 
z
" transform="scale(0.015625)"/>
     <path id="DejaVuSans-Oblique-6f" d="M 1625 -91 
Q 1009 -91 651 289 
Q 294 669 294 1325 
Q 294 1706 417 2101 
Q 541 2497 738 2766 
Q 1047 3184 1428 3384 
Q 1809 3584 2291 3584 
Q 2888 3584 3255 3212 
Q 3622 2841 3622 2241 
Q 3622 1825 3500 1412 
Q 3378 1000 3181 728 
Q 2875 309 2494 109 
Q 2113 -91 1625 -91 
z
M 891 1344 
Q 891 869 1089 633 
Q 1288 397 1691 397 
Q 2269 397 2648 901 
Q 3028 1406 3028 2181 
Q 3028 2634 2825 2865 
Q 2622 3097 2228 3097 
Q 1903 3097 1650 2945 
Q 1397 2794 1197 2484 
Q 1050 2253 970 1956 
Q 891 1659 891 1344 
z
" transform="scale(0.015625)"/>
     <path id="DejaVuSans-Oblique-66" d="M 3059 4863 
L 2969 4384 
L 2419 4384 
Q 2106 4384 1964 4261 
Q 1822 4138 1753 3809 
L 1691 3500 
L 2638 3500 
L 2553 3053 
L 1606 3053 
L 1013 0 
L 434 0 
L 1031 3053 
L 481 3053 
L 563 3500 
L 1113 3500 
L 1159 3744 
Q 1278 4363 1576 4613 
Q 1875 4863 2516 4863 
L 3059 4863 
z
" transform="scale(0.015625)"/>
     <path id="DejaVuSans-Oblique-61" d="M 3438 1997 
L 3047 0 
L 2472 0 
L 2578 531 
Q 2325 219 2001 64 
Q 1678 -91 1281 -91 
Q 834 -91 548 182 
Q 263 456 263 884 
Q 263 1497 752 1853 
Q 1241 2209 2100 2209 
L 2900 2209 
L 2931 2363 
Q 2938 2388 2941 2417 
Q 2944 2447 2944 2509 
Q 2944 2788 2717 2942 
Q 2491 3097 2081 3097 
Q 1800 3097 1504 3025 
Q 1209 2953 897 2809 
L 997 3341 
Q 1322 3463 1633 3523 
Q 1944 3584 2234 3584 
Q 2853 3584 3176 3315 
Q 3500 3047 3500 2534 
Q 3500 2431 3484 2292 
Q 3469 2153 3438 1997 
z
M 2816 1759 
L 2241 1759 
Q 1534 1759 1195 1570 
Q 856 1381 856 984 
Q 856 709 1029 553 
Q 1203 397 1509 397 
Q 1978 397 2328 733 
Q 2678 1069 2791 1631 
L 2816 1759 
z
" transform="scale(0.015625)"/>
     <path id="DejaVuSans-Oblique-69" d="M 1172 4863 
L 1747 4863 
L 1606 4134 
L 1031 4134 
L 1172 4863 
z
M 909 3500 
L 1484 3500 
L 800 0 
L 225 0 
L 909 3500 
z
" transform="scale(0.015625)"/>
     <path id="DejaVuSans-Oblique-73" d="M 3200 3397 
L 3091 2853 
Q 2863 2978 2609 3040 
Q 2356 3103 2088 3103 
Q 1634 3103 1373 2948 
Q 1113 2794 1113 2528 
Q 1113 2219 1719 2053 
Q 1766 2041 1788 2034 
L 1972 1978 
Q 2547 1819 2739 1644 
Q 2931 1469 2931 1166 
Q 2931 609 2489 259 
Q 2047 -91 1331 -91 
Q 1053 -91 747 -37 
Q 441 16 72 128 
L 184 722 
Q 500 559 806 475 
Q 1113 391 1394 391 
Q 1816 391 2080 572 
Q 2344 753 2344 1031 
Q 2344 1331 1650 1516 
L 1591 1531 
L 1394 1581 
Q 956 1697 753 1886 
Q 550 2075 550 2369 
Q 550 2928 970 3256 
Q 1391 3584 2113 3584 
Q 2397 3584 2667 3537 
Q 2938 3491 3200 3397 
z
" transform="scale(0.015625)"/>
     <path id="DejaVuSans-38" d="M 2034 2216 
Q 1584 2216 1326 1975 
Q 1069 1734 1069 1313 
Q 1069 891 1326 650 
Q 1584 409 2034 409 
Q 2484 409 2743 651 
Q 3003 894 3003 1313 
Q 3003 1734 2745 1975 
Q 2488 2216 2034 2216 
z
M 1403 2484 
Q 997 2584 770 2862 
Q 544 3141 544 3541 
Q 544 4100 942 4425 
Q 1341 4750 2034 4750 
Q 2731 4750 3128 4425 
Q 3525 4100 3525 3541 
Q 3525 3141 3298 2862 
Q 3072 2584 2669 2484 
Q 3125 2378 3379 2068 
Q 3634 1759 3634 1313 
Q 3634 634 3220 271 
Q 2806 -91 2034 -91 
Q 1263 -91 848 271 
Q 434 634 434 1313 
Q 434 1759 690 2068 
Q 947 2378 1403 2484 
z
M 1172 3481 
Q 1172 3119 1398 2916 
Q 1625 2713 2034 2713 
Q 2441 2713 2670 2916 
Q 2900 3119 2900 3481 
Q 2900 3844 2670 4047 
Q 2441 4250 2034 4250 
Q 1625 4250 1398 4047 
Q 1172 3844 1172 3481 
z
" transform="scale(0.015625)"/>
    </defs>
    <use xlink:href="#DejaVuSans-4c" transform="translate(0 0.015625)"/>
    <use xlink:href="#DejaVuSans-61" transform="translate(55.712891 0.015625)"/>
    <use xlink:href="#DejaVuSans-70" transform="translate(116.992188 0.015625)"/>
    <use xlink:href="#DejaVuSans-6c" transform="translate(180.46875 0.015625)"/>
    <use xlink:href="#DejaVuSans-61" transform="translate(208.251953 0.015625)"/>
    <use xlink:href="#DejaVuSans-63" transform="translate(269.53125 0.015625)"/>
    <use xlink:href="#DejaVuSans-65" transform="translate(324.511719 0.015625)"/>
    <use xlink:href="#DejaVuSans-20" transform="translate(386.035156 0.015625)"/>
    <use xlink:href="#DejaVuSans-32" transform="translate(417.822266 0.015625)"/>
    <use xlink:href="#DejaVuSans-44" transform="translate(481.445312 0.015625)"/>
    <use xlink:href="#DejaVuSans-3a" transform="translate(558.447266 0.015625)"/>
    <use xlink:href="#DejaVuSans-20" transform="translate(592.138672 0.015625)"/>
    <use xlink:href="#DejaVuSans-45" transform="translate(623.925781 0.015625)"/>
    <use xlink:href="#DejaVuSans-6c" transform="translate(687.109375 0.015625)"/>
    <use xlink:href="#DejaVuSans-6c" transform="translate(714.892578 0.015625)"/>
    <use xlink:href="#DejaVuSans-69" transform="translate(742.675781 0.015625)"/>
    <use xlink:href="#DejaVuSans-70" transform="translate(770.458984 0.015625)"/>
    <use xlink:href="#DejaVuSans-73" transform="translate(833.935547 0.015625)"/>
    <use xlink:href="#DejaVuSans-65" transform="translate(886.035156 0.015625)"/>
    <use xlink:href="#DejaVuSans-20" transform="translate(947.558594 0.015625)"/>
    <use xlink:href="#DejaVuSans-53" transform="translate(979.345703 0.015625)"/>
    <use xlink:href="#DejaVuSans-4c" transform="translate(1042.822266 0.015625)"/>
    <use xlink:href="#DejaVuSans-50" transform="translate(1098.535156 0.015625)"/>
    <use xlink:href="#DejaVuSans-20" transform="translate(1158.837891 0.015625)"/>
    <use xlink:href="#DejaVuSans-42" transform="translate(1190.625 0.015625)"/>
    <use xlink:href="#DejaVuSans-6f" transform="translate(1259.228516 0.015625)"/>
    <use xlink:href="#DejaVuSans-75" transform="translate(1320.410156 0.015625)"/>
    <use xlink:href="#DejaVuSans-6e" transform="translate(1383.789062 0.015625)"/>
    <use xlink:href="#DejaVuSans-64" transform="translate(1447.167969 0.015625)"/>
    <use xlink:href="#DejaVuSans-61" transform="translate(1510.644531 0.015625)"/>
    <use xlink:href="#DejaVuSans-72" transform="translate(1571.923828 0.015625)"/>
    <use xlink:href="#DejaVuSans-79" transform="translate(1613.037109 0.015625)"/>
    <use xlink:href="#DejaVuSans-20" transform="translate(1672.216797 0.015625)"/>
    <use xlink:href="#DejaVuSans-45" transform="translate(1704.003906 0.015625)"/>
    <use xlink:href="#DejaVuSans-76" transform="translate(1767.1875 0.015625)"/>
    <use xlink:href="#DejaVuSans-61" transform="translate(1826.367188 0.015625)"/>
    <use xlink:href="#DejaVuSans-6c" transform="translate(1887.646484 0.015625)"/>
    <use xlink:href="#DejaVuSans-75" transform="translate(1915.429688 0.015625)"/>
    <use xlink:href="#DejaVuSans-61" transform="translate(1978.808594 0.015625)"/>
    <use xlink:href="#DejaVuSans-74" transform="translate(2040.087891 0.015625)"/>
    <use xlink:href="#DejaVuSans-69" transform="translate(2079.296875 0.015625)"/>
    <use xlink:href="#DejaVuSans-6f" transform="translate(2107.080078 0.015625)"/>
    <use xlink:href="#DejaVuSans-6e" transform="translate(2168.261719 0.015625)"/>
    <use xlink:href="#DejaVuSans-20" transform="translate(2231.640625 0.015625)"/>
    <use xlink:href="#DejaVuSans-45" transform="translate(2263.427734 0.015625)"/>
    <use xlink:href="#DejaVuSans-72" transform="translate(2326.611328 0.015625)"/>
    <use xlink:href="#DejaVuSans-72" transform="translate(2367.724609 0.015625)"/>
    <use xlink:href="#DejaVuSans-6f" transform="translate(2408.837891 0.015625)"/>
    <use xlink:href="#DejaVuSans-72" transform="translate(2470.019531 0.015625)"/>
    <use xlink:href="#DejaVuSans-20" transform="translate(2511.132812 0.015625)"/>
    <use xlink:href="#DejaVuSans-28" transform="translate(2542.919922 0.015625)"/>
    <use xlink:href="#DejaVuSans-Oblique-6d" transform="translate(2581.933594 0.015625)"/>
    <use xlink:href="#DejaVuSans-3d" transform="translate(2698.828125 0.015625)"/>
    <use xlink:href="#DejaVuSans-31" transform="translate(2802.099609 0.015625)"/>
    <use xlink:href="#DejaVuSans-30" transform="translate(2865.722656 0.015625)"/>
    <use xlink:href="#DejaVuSans-30" transform="translate(2929.345703 0.015625)"/>
    <use xlink:href="#DejaVuSans-2c" transform="translate(2992.96875 0.015625)"/>
    <use xlink:href="#DejaVuSans-20" transform="translate(3024.755859 0.015625)"/>
    <use xlink:href="#DejaVuSans-Oblique-70" transform="translate(3056.542969 0.015625)"/>
    <use xlink:href="#DejaVuSans-Oblique-6f" transform="translate(3120.019531 -16.390625) scale(0.7)"/>
    <use xlink:href="#DejaVuSans-Oblique-66" transform="translate(3162.84668 -16.390625) scale(0.7)"/>
    <use xlink:href="#DejaVuSans-Oblique-66" transform="translate(3187.490234 -16.390625) scale(0.7)"/>
    <use xlink:href="#DejaVuSans-Oblique-61" transform="translate(3212.133789 -16.390625) scale(0.7)"/>
    <use xlink:href="#DejaVuSans-Oblique-78" transform="translate(3255.029297 -16.390625) scale(0.7)"/>
    <use xlink:href="#DejaVuSans-Oblique-69" transform="translate(3296.455078 -16.390625) scale(0.7)"/>
    <use xlink:href="#DejaVuSans-Oblique-73" transform="translate(3315.90332 -16.390625) scale(0.7)"/>
    <use xlink:href="#DejaVuSans-3d" transform="translate(3374.589844 0.015625)"/>
    <use xlink:href="#DejaVuSans-38" transform="translate(3477.861328 0.015625)"/>
    <use xlink:href="#DejaVuSans-29" transform="translate(3541.484375 0.015625)"/>
   </g>
  </g>
 </g>
 <defs>
  <clipPath id="pe6383b9b7a">
   <rect x="89.01" y="55.3824" width="551.862" height="355.3704"/>
  </clipPath>
 </defs>
</svg>
